<svg width="500" height="464" viewBox="0 0 500 464" fill="none" xmlns="http://www.w3.org/2000/svg">
<g clip-path="url(#clip0_3178_1575)">
<g clip-path="url(#clip1_3178_1575)">
<rect x="5" y="4.94434" width="490.74" height="454.63" rx="50" fill="white"/>
<path d="M227.158 92.3066H224.502C224.426 91.8709 224.287 91.4851 224.083 91.1489C223.879 90.808 223.626 90.5191 223.323 90.2824C223.02 90.0457 222.674 89.8681 222.286 89.7497C221.903 89.6266 221.488 89.5651 221.043 89.5651C220.253 89.5651 219.552 89.7639 218.941 90.1617C218.33 90.5547 217.852 91.1323 217.506 91.8946C217.161 92.6522 216.988 93.5779 216.988 94.6716C216.988 95.7843 217.161 96.7218 217.506 97.4841C217.857 98.2417 218.335 98.8146 218.941 99.2029C219.552 99.5864 220.25 99.7781 221.036 99.7781C221.472 99.7781 221.879 99.7213 222.258 99.6077C222.641 99.4893 222.985 99.3165 223.288 99.0892C223.595 98.8619 223.853 98.5826 224.062 98.2512C224.275 97.9197 224.422 97.5409 224.502 97.1148L227.158 97.129C227.059 97.8203 226.844 98.469 226.512 99.075C226.185 99.6811 225.757 100.216 225.227 100.68C224.696 101.139 224.076 101.499 223.366 101.76C222.656 102.015 221.867 102.143 221.001 102.143C219.722 102.143 218.581 101.847 217.577 101.255C216.574 100.664 215.783 99.8089 215.205 98.6915C214.628 97.5741 214.339 96.2341 214.339 94.6716C214.339 93.1044 214.63 91.7644 215.212 90.6517C215.795 89.5343 216.588 88.6797 217.592 88.0878C218.595 87.4959 219.732 87.2 221.001 87.2C221.81 87.2 222.563 87.3137 223.259 87.5409C223.955 87.7682 224.576 88.102 225.12 88.5423C225.665 88.978 226.112 89.513 226.462 90.1475C226.817 90.7772 227.049 91.4969 227.158 92.3066ZM232.597 102.165C231.906 102.165 231.283 102.041 230.729 101.795C230.18 101.544 229.744 101.175 229.422 100.687C229.105 100.2 228.946 99.5982 228.946 98.8833C228.946 98.2677 229.06 97.7587 229.287 97.3563C229.515 96.9538 229.825 96.6318 230.218 96.3904C230.611 96.1489 231.053 95.9666 231.546 95.8435C232.043 95.7156 232.557 95.6233 233.087 95.5665C233.726 95.5002 234.245 95.441 234.642 95.3889C235.04 95.3321 235.329 95.2469 235.509 95.1333C235.694 95.0149 235.786 94.8326 235.786 94.5864V94.5438C235.786 94.0087 235.627 93.5944 235.31 93.3009C234.993 93.0073 234.536 92.8605 233.939 92.8605C233.31 92.8605 232.81 92.9978 232.441 93.2725C232.076 93.5471 231.83 93.8714 231.702 94.2455L229.301 93.9046C229.491 93.2417 229.803 92.6877 230.239 92.2426C230.675 91.7928 231.207 91.4566 231.837 91.2341C232.467 91.0068 233.163 90.8932 233.925 90.8932C234.451 90.8932 234.974 90.9548 235.495 91.0779C236.016 91.201 236.491 91.4046 236.922 91.6887C237.353 91.968 237.699 92.3492 237.959 92.8321C238.224 93.3151 238.357 93.9188 238.357 94.6432V101.944H235.885V100.446H235.8C235.644 100.749 235.424 101.033 235.14 101.298C234.86 101.558 234.507 101.769 234.081 101.93C233.66 102.086 233.165 102.165 232.597 102.165ZM233.265 100.275C233.781 100.275 234.228 100.174 234.607 99.9699C234.986 99.7616 235.277 99.4869 235.48 99.146C235.689 98.8051 235.793 98.4334 235.793 98.031V96.7455C235.712 96.8118 235.575 96.8733 235.381 96.9301C235.192 96.9869 234.979 97.0367 234.742 97.0793C234.505 97.1219 234.271 97.1598 234.039 97.1929C233.807 97.2261 233.605 97.2545 233.435 97.2781C233.051 97.3302 232.708 97.4155 232.405 97.5338C232.102 97.6522 231.863 97.8179 231.688 98.031C231.513 98.2393 231.425 98.5092 231.425 98.8406C231.425 99.3141 231.598 99.6716 231.944 99.9131C232.289 100.155 232.73 100.275 233.265 100.275ZM241.056 101.944V87.3989H243.627V92.8392H243.733C243.866 92.5741 244.053 92.2923 244.294 91.9941C244.536 91.691 244.863 91.433 245.275 91.2199C245.686 91.0021 246.212 90.8932 246.851 90.8932C247.694 90.8932 248.454 91.1086 249.131 91.5395C249.813 91.9656 250.353 92.5977 250.75 93.4358C251.153 94.2691 251.354 95.2919 251.354 96.504C251.354 97.7019 251.158 98.7199 250.765 99.558C250.372 100.396 249.837 101.035 249.159 101.476C248.482 101.916 247.715 102.136 246.858 102.136C246.233 102.136 245.715 102.032 245.303 101.824C244.891 101.615 244.56 101.364 244.309 101.071C244.062 100.772 243.871 100.491 243.733 100.226H243.584V101.944H241.056ZM243.577 96.4898C243.577 97.1953 243.676 97.8132 243.875 98.3435C244.079 98.8738 244.37 99.2881 244.749 99.5864C245.132 99.8799 245.596 100.027 246.141 100.027C246.709 100.027 247.185 99.8752 247.569 99.5722C247.952 99.2644 248.241 98.8454 248.435 98.3151C248.634 97.78 248.733 97.1716 248.733 96.4898C248.733 95.8127 248.636 95.2114 248.442 94.6858C248.248 94.1602 247.959 93.7483 247.576 93.45C247.192 93.1517 246.714 93.0026 246.141 93.0026C245.592 93.0026 245.125 93.147 244.742 93.4358C244.358 93.7246 244.067 94.1295 243.868 94.6503C243.674 95.1711 243.577 95.7843 243.577 96.4898ZM256.111 87.3989V101.944H253.54V87.3989H256.111ZM263.584 102.157C262.49 102.157 261.546 101.93 260.75 101.476C259.96 101.016 259.351 100.368 258.925 99.5296C258.499 98.6868 258.286 97.6948 258.286 96.5537C258.286 95.4316 258.499 94.4467 258.925 93.5992C259.356 92.7469 259.957 92.084 260.729 91.6105C261.501 91.1323 262.408 90.8932 263.449 90.8932C264.122 90.8932 264.756 91.0021 265.353 91.2199C265.954 91.433 266.484 91.7644 266.944 92.2142C267.408 92.664 267.772 93.2369 268.037 93.933C268.302 94.6243 268.435 95.4481 268.435 96.4046V97.1929H259.493V95.46H265.971C265.966 94.9675 265.859 94.5296 265.651 94.146C265.443 93.7578 265.151 93.4524 264.777 93.2298C264.408 93.0073 263.977 92.896 263.485 92.896C262.959 92.896 262.498 93.0239 262.1 93.2796C261.702 93.5305 261.392 93.8619 261.169 94.2739C260.952 94.6811 260.84 95.1285 260.836 95.6162V97.129C260.836 97.7635 260.952 98.308 261.184 98.7625C261.416 99.2123 261.74 99.558 262.157 99.7994C262.573 100.036 263.061 100.155 263.62 100.155C263.994 100.155 264.332 100.102 264.635 99.9983C264.938 99.8894 265.201 99.7308 265.424 99.5225C265.646 99.3141 265.814 99.0561 265.928 98.7483L268.328 99.0182C268.177 99.6527 267.888 100.207 267.462 100.68C267.041 101.149 266.501 101.513 265.843 101.774C265.185 102.03 264.432 102.157 263.584 102.157ZM275.045 89.6077V87.3989H286.651V89.6077H282.155V101.944H279.541V89.6077H275.045ZM297.268 91.0352L293.384 101.944H290.543L286.658 91.0352H289.399L291.906 99.1389H292.02L294.534 91.0352H297.268Z" fill="#101828"/>
<circle cx="67" cy="94.9443" r="30" fill="#F7F7F7"/>
<path d="M69.9998 102.864L63.4798 96.3444C62.7098 95.5744 62.7098 94.3144 63.4798 93.5444L69.9998 87.0244" stroke="#080B30" stroke-width="1.5" stroke-miterlimit="10" stroke-linecap="round" stroke-linejoin="round"/>
<circle cx="444" cy="94.9443" r="30" fill="#F7F7F7"/>
<circle cx="443.8" cy="87.7443" r="1.8" fill="#080B30"/>
<circle cx="443.8" cy="94.9443" r="1.8" fill="#080B30"/>
<circle cx="443.8" cy="102.144" r="1.8" fill="#080B30"/>
<rect x="5" y="148.944" width="491" height="319" fill="#F8F8FA"/>
<rect x="31" y="158.944" width="440" height="75" rx="8" fill="white"/>
<g style="mix-blend-mode:multiply">
<rect x="52" y="168.944" width="398" height="54" rx="16" fill="#F2EEFF"/>
<rect x="64" y="184.944" width="93" height="22" rx="11" fill="#764DFF"/>
<path d="M73.0178 199.944V198.802L76.0476 195.832C76.3374 195.54 76.5788 195.28 76.772 195.052C76.9652 194.825 77.1101 194.605 77.2067 194.392C77.3033 194.179 77.3516 193.951 77.3516 193.71C77.3516 193.434 77.2891 193.199 77.1641 193.003C77.0391 192.804 76.8672 192.65 76.6484 192.542C76.4297 192.434 76.1811 192.38 75.9027 192.38C75.6158 192.38 75.3643 192.44 75.1484 192.559C74.9325 192.676 74.7649 192.842 74.6456 193.058C74.5291 193.274 74.4709 193.531 74.4709 193.829H72.9666C72.9666 193.275 73.093 192.794 73.3459 192.385C73.5987 191.976 73.9467 191.659 74.3899 191.434C74.8359 191.21 75.3473 191.098 75.924 191.098C76.5092 191.098 77.0234 191.207 77.4666 191.426C77.9098 191.645 78.2536 191.944 78.4979 192.325C78.745 192.706 78.8686 193.14 78.8686 193.629C78.8686 193.956 78.8061 194.277 78.6811 194.592C78.5561 194.907 78.3359 195.257 78.0206 195.64C77.7081 196.024 77.2692 196.488 76.7038 197.034L75.1996 198.564V198.623H79.0007V199.944H73.0178ZM85.1371 198.308V197.848C85.1371 197.51 85.2081 197.199 85.3501 196.915C85.495 196.63 85.7053 196.402 85.9808 196.228C86.2564 196.055 86.5902 195.968 86.9822 195.968C87.3857 195.968 87.7237 196.055 87.9964 196.228C88.2692 196.399 88.4751 196.626 88.6143 196.91C88.7564 197.194 88.8274 197.507 88.8274 197.848V198.308C88.8274 198.646 88.7564 198.957 88.6143 199.241C88.4723 199.525 88.2635 199.754 87.9879 199.927C87.7152 200.101 87.38 200.187 86.9822 200.187C86.5845 200.187 86.2479 200.101 85.9723 199.927C85.6967 199.754 85.4879 199.525 85.3459 199.241C85.2067 198.957 85.1371 198.646 85.1371 198.308ZM86.2493 197.848V198.308C86.2493 198.532 86.3033 198.738 86.4112 198.926C86.5192 199.113 86.7095 199.207 86.9822 199.207C87.2578 199.207 87.4467 199.115 87.549 198.93C87.6541 198.743 87.7067 198.535 87.7067 198.308V197.848C87.7067 197.62 87.657 197.413 87.5575 197.226C87.4581 197.035 87.2663 196.94 86.9822 196.94C86.7152 196.94 86.5263 197.035 86.4155 197.226C86.3047 197.413 86.2493 197.62 86.2493 197.848ZM80.701 193.314V192.853C80.701 192.513 80.7734 192.2 80.9183 191.916C81.0632 191.632 81.2734 191.405 81.549 191.234C81.8246 191.061 82.1584 190.974 82.5504 190.974C82.951 190.974 83.2876 191.061 83.5604 191.234C83.8359 191.405 84.0433 191.632 84.1825 191.916C84.3217 192.2 84.3913 192.513 84.3913 192.853V193.314C84.3913 193.655 84.3203 193.967 84.1783 194.251C84.0391 194.532 83.8317 194.758 83.5561 194.929C83.2805 195.099 82.9453 195.184 82.5504 195.184C82.1499 195.184 81.8118 195.099 81.5362 194.929C81.2635 194.758 81.0561 194.531 80.9141 194.247C80.772 193.963 80.701 193.652 80.701 193.314ZM81.8217 192.853V193.314C81.8217 193.541 81.8743 193.748 81.9794 193.936C82.0874 194.12 82.2777 194.213 82.5504 194.213C82.8232 194.213 83.0107 194.12 83.1129 193.936C83.218 193.748 83.2706 193.541 83.2706 193.314V192.853C83.2706 192.626 83.2209 192.419 83.1214 192.231C83.022 192.041 82.8317 191.946 82.5504 191.946C82.2805 191.946 82.0916 192.041 81.9837 192.231C81.8757 192.422 81.8217 192.629 81.8217 192.853ZM81.1868 199.944L87.1868 191.217H88.2521L82.2521 199.944H81.1868ZM101.128 194.162H99.5341C99.4886 193.9 99.4048 193.669 99.2827 193.467C99.1605 193.263 99.0085 193.089 98.8267 192.947C98.6449 192.805 98.4375 192.699 98.2045 192.628C97.9744 192.554 97.7259 192.517 97.4588 192.517C96.9844 192.517 96.5639 192.636 96.1974 192.875C95.831 193.111 95.544 193.457 95.3366 193.915C95.1293 194.369 95.0256 194.924 95.0256 195.581C95.0256 196.248 95.1293 196.811 95.3366 197.268C95.5469 197.723 95.8338 198.066 96.1974 198.299C96.5639 198.53 96.983 198.645 97.4545 198.645C97.7159 198.645 97.9602 198.611 98.1875 198.542C98.4176 198.471 98.6236 198.368 98.8054 198.231C98.9901 198.095 99.1449 197.927 99.2699 197.728C99.3977 197.53 99.4858 197.302 99.5341 197.047L101.128 197.055C101.068 197.47 100.939 197.859 100.74 198.223C100.544 198.586 100.287 198.907 99.9688 199.186C99.6506 199.461 99.2784 199.677 98.8523 199.834C98.4261 199.987 97.9531 200.064 97.4332 200.064C96.6662 200.064 95.9815 199.886 95.3793 199.531C94.777 199.176 94.3026 198.663 93.956 197.993C93.6094 197.322 93.4361 196.518 93.4361 195.581C93.4361 194.64 93.6108 193.836 93.9602 193.169C94.3097 192.498 94.7855 191.986 95.3878 191.63C95.9901 191.275 96.6719 191.098 97.4332 191.098C97.919 191.098 98.3707 191.166 98.7884 191.302C99.206 191.439 99.5781 191.639 99.9048 191.903C100.232 192.165 100.5 192.486 100.71 192.866C100.923 193.244 101.063 193.676 101.128 194.162ZM104.391 200.076C103.976 200.076 103.603 200.003 103.27 199.855C102.941 199.704 102.679 199.483 102.486 199.19C102.296 198.897 102.201 198.537 102.201 198.108C102.201 197.738 102.269 197.433 102.405 197.191C102.542 196.95 102.728 196.757 102.963 196.612C103.199 196.467 103.465 196.358 103.76 196.284C104.059 196.207 104.367 196.152 104.685 196.118C105.069 196.078 105.38 196.042 105.618 196.011C105.857 195.977 106.03 195.926 106.138 195.858C106.249 195.787 106.304 195.677 106.304 195.53V195.504C106.304 195.183 106.209 194.934 106.019 194.758C105.828 194.582 105.554 194.494 105.196 194.494C104.819 194.494 104.519 194.576 104.297 194.741C104.078 194.906 103.931 195.101 103.854 195.325L102.414 195.12C102.527 194.723 102.715 194.39 102.976 194.123C103.238 193.853 103.557 193.652 103.935 193.518C104.313 193.382 104.73 193.314 105.188 193.314C105.503 193.314 105.817 193.351 106.13 193.424C106.442 193.498 106.728 193.62 106.986 193.791C107.245 193.959 107.452 194.187 107.608 194.477C107.767 194.767 107.847 195.129 107.847 195.564V199.944H106.364V199.045H106.313C106.219 199.227 106.087 199.397 105.917 199.557C105.749 199.713 105.537 199.839 105.282 199.936C105.029 200.03 104.732 200.076 104.391 200.076ZM104.792 198.943C105.101 198.943 105.37 198.882 105.597 198.76C105.824 198.635 105.999 198.47 106.121 198.265C106.246 198.061 106.309 197.838 106.309 197.596V196.825C106.26 196.865 106.178 196.902 106.061 196.936C105.948 196.97 105.82 197 105.678 197.025C105.536 197.051 105.395 197.074 105.256 197.093C105.117 197.113 104.996 197.13 104.894 197.145C104.664 197.176 104.458 197.227 104.276 197.298C104.094 197.369 103.951 197.468 103.846 197.596C103.74 197.721 103.688 197.883 103.688 198.082C103.688 198.366 103.792 198.581 103.999 198.726C104.206 198.87 104.471 198.943 104.792 198.943ZM114.571 195.129L113.165 195.282C113.125 195.14 113.056 195.007 112.956 194.882C112.86 194.757 112.729 194.656 112.564 194.579C112.4 194.503 112.198 194.464 111.959 194.464C111.638 194.464 111.368 194.534 111.15 194.673C110.934 194.812 110.827 194.993 110.83 195.214C110.827 195.405 110.897 195.559 111.039 195.679C111.184 195.798 111.422 195.896 111.755 195.973L112.871 196.211C113.49 196.345 113.951 196.557 114.252 196.846C114.556 197.136 114.709 197.515 114.712 197.984C114.709 198.396 114.588 198.76 114.35 199.075C114.114 199.388 113.786 199.632 113.365 199.808C112.945 199.984 112.462 200.072 111.917 200.072C111.115 200.072 110.471 199.905 109.982 199.569C109.493 199.231 109.202 198.761 109.108 198.159L110.613 198.014C110.681 198.309 110.826 198.532 111.047 198.683C111.269 198.834 111.557 198.909 111.912 198.909C112.279 198.909 112.573 198.834 112.794 198.683C113.019 198.532 113.131 198.346 113.131 198.125C113.131 197.937 113.059 197.782 112.914 197.66C112.772 197.538 112.55 197.444 112.249 197.379L111.132 197.145C110.505 197.014 110.04 196.794 109.739 196.484C109.438 196.172 109.289 195.777 109.292 195.299C109.289 194.896 109.398 194.547 109.62 194.251C109.844 193.953 110.155 193.723 110.553 193.561C110.953 193.396 111.415 193.314 111.938 193.314C112.705 193.314 113.309 193.477 113.749 193.804C114.192 194.13 114.466 194.572 114.571 195.129ZM117.527 196.109V199.944H115.984V191.217H117.493V194.511H117.569C117.723 194.142 117.96 193.851 118.281 193.638C118.605 193.422 119.017 193.314 119.517 193.314C119.971 193.314 120.368 193.409 120.706 193.599C121.044 193.79 121.305 194.068 121.49 194.434C121.677 194.801 121.771 195.248 121.771 195.777V199.944H120.228V196.015C120.228 195.575 120.115 195.233 119.887 194.988C119.663 194.741 119.348 194.618 118.941 194.618C118.669 194.618 118.424 194.677 118.208 194.797C117.995 194.913 117.828 195.082 117.706 195.304C117.586 195.525 117.527 195.794 117.527 196.109ZM123.412 199.944V191.217H124.954V194.481H125.018C125.098 194.322 125.21 194.153 125.355 193.974C125.5 193.792 125.696 193.638 125.943 193.51C126.19 193.379 126.505 193.314 126.889 193.314C127.395 193.314 127.85 193.443 128.257 193.701C128.666 193.957 128.99 194.336 129.228 194.839C129.47 195.339 129.591 195.953 129.591 196.68C129.591 197.399 129.473 198.01 129.237 198.513C129.001 199.015 128.68 199.399 128.274 199.663C127.868 199.927 127.407 200.059 126.893 200.059C126.518 200.059 126.207 199.997 125.96 199.872C125.713 199.747 125.514 199.596 125.363 199.42C125.216 199.241 125.1 199.072 125.018 198.913H124.929V199.944H123.412ZM124.924 196.672C124.924 197.095 124.984 197.466 125.103 197.784C125.225 198.102 125.4 198.351 125.627 198.53C125.858 198.706 126.136 198.794 126.463 198.794C126.804 198.794 127.089 198.703 127.319 198.521C127.549 198.336 127.723 198.085 127.839 197.767C127.958 197.446 128.018 197.081 128.018 196.672C128.018 196.265 127.96 195.905 127.843 195.589C127.727 195.274 127.554 195.027 127.324 194.848C127.093 194.669 126.806 194.579 126.463 194.579C126.133 194.579 125.853 194.666 125.623 194.839C125.393 195.013 125.218 195.255 125.099 195.568C124.983 195.88 124.924 196.248 124.924 196.672ZM132.786 200.076C132.371 200.076 131.997 200.003 131.665 199.855C131.335 199.704 131.074 199.483 130.881 199.19C130.69 198.897 130.595 198.537 130.595 198.108C130.595 197.738 130.663 197.433 130.8 197.191C130.936 196.95 131.122 196.757 131.358 196.612C131.594 196.467 131.859 196.358 132.155 196.284C132.453 196.207 132.761 196.152 133.08 196.118C133.463 196.078 133.774 196.042 134.013 196.011C134.251 195.977 134.425 195.926 134.533 195.858C134.643 195.787 134.699 195.677 134.699 195.53V195.504C134.699 195.183 134.604 194.934 134.413 194.758C134.223 194.582 133.949 194.494 133.591 194.494C133.213 194.494 132.913 194.576 132.692 194.741C132.473 194.906 132.325 195.101 132.249 195.325L130.808 195.12C130.922 194.723 131.109 194.39 131.371 194.123C131.632 193.853 131.952 193.652 132.33 193.518C132.707 193.382 133.125 193.314 133.582 193.314C133.898 193.314 134.212 193.351 134.524 193.424C134.837 193.498 135.122 193.62 135.381 193.791C135.639 193.959 135.847 194.187 136.003 194.477C136.162 194.767 136.241 195.129 136.241 195.564V199.944H134.759V199.045H134.707C134.614 199.227 134.482 199.397 134.311 199.557C134.143 199.713 133.932 199.839 133.676 199.936C133.423 200.03 133.126 200.076 132.786 200.076ZM133.186 198.943C133.496 198.943 133.764 198.882 133.991 198.76C134.219 198.635 134.393 198.47 134.516 198.265C134.641 198.061 134.703 197.838 134.703 197.596V196.825C134.655 196.865 134.572 196.902 134.456 196.936C134.342 196.97 134.214 197 134.072 197.025C133.93 197.051 133.79 197.074 133.651 197.093C133.511 197.113 133.391 197.13 133.288 197.145C133.058 197.176 132.852 197.227 132.67 197.298C132.489 197.369 132.345 197.468 132.24 197.596C132.135 197.721 132.082 197.883 132.082 198.082C132.082 198.366 132.186 198.581 132.393 198.726C132.601 198.87 132.865 198.943 133.186 198.943ZM140.648 200.072C139.994 200.072 139.433 199.929 138.964 199.642C138.499 199.355 138.139 198.959 137.886 198.453C137.636 197.944 137.511 197.359 137.511 196.697C137.511 196.032 137.639 195.446 137.895 194.937C138.151 194.426 138.511 194.028 138.977 193.744C139.446 193.457 140 193.314 140.639 193.314C141.17 193.314 141.641 193.412 142.05 193.608C142.462 193.801 142.79 194.075 143.034 194.43C143.278 194.782 143.418 195.194 143.452 195.666H141.977C141.918 195.351 141.776 195.088 141.551 194.878C141.33 194.665 141.033 194.558 140.661 194.558C140.345 194.558 140.068 194.643 139.83 194.814C139.591 194.981 139.405 195.223 139.271 195.538C139.141 195.853 139.075 196.231 139.075 196.672C139.075 197.118 139.141 197.501 139.271 197.822C139.402 198.14 139.585 198.386 139.821 198.559C140.06 198.73 140.339 198.815 140.661 198.815C140.888 198.815 141.091 198.772 141.27 198.687C141.452 198.599 141.604 198.473 141.726 198.308C141.848 198.143 141.932 197.943 141.977 197.707H143.452C143.415 198.17 143.278 198.581 143.043 198.939C142.807 199.294 142.486 199.572 142.08 199.774C141.673 199.973 141.196 200.072 140.648 200.072ZM146.125 197.89L146.12 196.028H146.368L148.72 193.399H150.522L147.629 196.62H147.309L146.125 197.89ZM144.718 199.944V191.217H146.261V199.944H144.718ZM148.826 199.944L146.696 196.966L147.735 195.879L150.672 199.944H148.826Z" fill="white"/>
<path d="M167.668 199.944L165.247 191.217H166.632L168.332 197.976H168.413L170.182 191.217H171.554L173.322 197.98H173.403L175.099 191.217H176.489L174.064 199.944H172.739L170.902 193.407H170.834L168.997 199.944H167.668ZM178.861 196.058V199.944H177.587V191.217H178.844V194.464H178.925C179.078 194.112 179.313 193.832 179.628 193.625C179.944 193.417 180.355 193.314 180.864 193.314C181.313 193.314 181.705 193.406 182.04 193.591C182.378 193.775 182.64 194.051 182.824 194.417C183.012 194.781 183.105 195.236 183.105 195.781V199.944H181.831V195.934C181.831 195.454 181.708 195.082 181.461 194.818C181.213 194.551 180.87 194.417 180.429 194.417C180.128 194.417 179.858 194.481 179.62 194.609C179.384 194.737 179.198 194.924 179.061 195.172C178.928 195.416 178.861 195.711 178.861 196.058ZM187.627 200.076C186.982 200.076 186.426 199.939 185.961 199.663C185.498 199.385 185.14 198.994 184.887 198.491C184.637 197.986 184.512 197.393 184.512 196.714C184.512 196.044 184.637 195.453 184.887 194.941C185.14 194.43 185.492 194.031 185.944 193.744C186.398 193.457 186.929 193.314 187.537 193.314C187.907 193.314 188.265 193.375 188.611 193.497C188.958 193.619 189.269 193.811 189.544 194.072C189.82 194.334 190.037 194.673 190.196 195.091C190.355 195.505 190.435 196.01 190.435 196.603V197.055H185.232V196.101H189.186C189.186 195.765 189.118 195.468 188.982 195.21C188.846 194.949 188.654 194.743 188.407 194.592C188.162 194.441 187.875 194.366 187.546 194.366C187.188 194.366 186.875 194.454 186.608 194.63C186.344 194.804 186.14 195.031 185.995 195.312C185.853 195.591 185.782 195.893 185.782 196.22V196.966C185.782 197.403 185.858 197.775 186.012 198.082C186.168 198.389 186.385 198.623 186.664 198.785C186.942 198.944 187.267 199.024 187.64 199.024C187.881 199.024 188.101 198.99 188.3 198.922C188.499 198.851 188.671 198.745 188.816 198.606C188.961 198.467 189.071 198.295 189.148 198.091L190.354 198.308C190.257 198.663 190.084 198.974 189.834 199.241C189.587 199.505 189.276 199.711 188.901 199.859C188.529 200.004 188.104 200.076 187.627 200.076ZM193.123 196.058V199.944H191.849V193.399H193.072V194.464H193.153C193.303 194.118 193.539 193.839 193.86 193.629C194.184 193.419 194.592 193.314 195.083 193.314C195.529 193.314 195.92 193.407 196.255 193.595C196.59 193.78 196.85 194.055 197.035 194.422C197.219 194.788 197.312 195.241 197.312 195.781V199.944H196.038V195.934C196.038 195.46 195.914 195.089 195.667 194.822C195.42 194.552 195.08 194.417 194.648 194.417C194.353 194.417 194.09 194.481 193.86 194.609C193.633 194.737 193.452 194.924 193.319 195.172C193.188 195.416 193.123 195.711 193.123 196.058ZM203.002 202.399C202.811 202.399 202.638 202.383 202.482 202.352C202.326 202.324 202.209 202.292 202.132 202.258L202.439 201.214C202.672 201.277 202.88 201.304 203.061 201.295C203.243 201.287 203.404 201.218 203.543 201.091C203.685 200.963 203.81 200.754 203.918 200.464L204.076 200.03L201.681 193.399H203.044L204.702 198.478H204.77L206.428 193.399H207.796L205.098 200.818C204.973 201.159 204.814 201.447 204.621 201.683C204.428 201.922 204.198 202.101 203.931 202.22C203.664 202.339 203.354 202.399 203.002 202.399ZM211.528 200.076C210.914 200.076 210.379 199.936 209.921 199.655C209.464 199.373 209.109 198.98 208.856 198.474C208.603 197.968 208.477 197.378 208.477 196.701C208.477 196.022 208.603 195.429 208.856 194.92C209.109 194.412 209.464 194.017 209.921 193.736C210.379 193.454 210.914 193.314 211.528 193.314C212.141 193.314 212.677 193.454 213.134 193.736C213.592 194.017 213.947 194.412 214.2 194.92C214.452 195.429 214.579 196.022 214.579 196.701C214.579 197.378 214.452 197.968 214.2 198.474C213.947 198.98 213.592 199.373 213.134 199.655C212.677 199.936 212.141 200.076 211.528 200.076ZM211.532 199.007C211.93 199.007 212.259 198.902 212.521 198.691C212.782 198.481 212.975 198.201 213.1 197.852C213.228 197.503 213.292 197.118 213.292 196.697C213.292 196.28 213.228 195.896 213.1 195.547C212.975 195.194 212.782 194.912 212.521 194.699C212.259 194.486 211.93 194.379 211.532 194.379C211.131 194.379 210.799 194.486 210.535 194.699C210.273 194.912 210.079 195.194 209.951 195.547C209.826 195.896 209.763 196.28 209.763 196.697C209.763 197.118 209.826 197.503 209.951 197.852C210.079 198.201 210.273 198.481 210.535 198.691C210.799 198.902 211.131 199.007 211.532 199.007ZM220.147 197.23V193.399H221.426V199.944H220.173V198.811H220.105C219.954 199.16 219.713 199.451 219.38 199.684C219.051 199.915 218.64 200.03 218.149 200.03C217.728 200.03 217.356 199.937 217.032 199.753C216.711 199.565 216.458 199.288 216.274 198.922C216.092 198.555 216.001 198.102 216.001 197.562V193.399H217.275V197.409C217.275 197.855 217.399 198.21 217.646 198.474C217.893 198.738 218.214 198.87 218.609 198.87C218.848 198.87 219.085 198.811 219.321 198.691C219.559 198.572 219.757 198.392 219.913 198.15C220.072 197.909 220.15 197.602 220.147 197.23ZM226.314 202.399V193.399H227.558V194.46H227.664C227.738 194.324 227.845 194.166 227.984 193.987C228.123 193.808 228.316 193.652 228.564 193.518C228.811 193.382 229.137 193.314 229.544 193.314C230.072 193.314 230.544 193.447 230.958 193.714C231.373 193.981 231.699 194.366 231.934 194.869C232.173 195.372 232.292 195.977 232.292 196.684C232.292 197.392 232.174 197.998 231.939 198.504C231.703 199.007 231.379 199.395 230.967 199.667C230.555 199.937 230.085 200.072 229.556 200.072C229.159 200.072 228.833 200.005 228.581 199.872C228.331 199.738 228.135 199.582 227.993 199.403C227.85 199.224 227.741 199.065 227.664 198.926H227.588V202.399H226.314ZM227.562 196.672C227.562 197.132 227.629 197.535 227.762 197.882C227.896 198.228 228.089 198.5 228.342 198.696C228.595 198.889 228.904 198.986 229.271 198.986C229.652 198.986 229.97 198.885 230.225 198.683C230.481 198.478 230.674 198.201 230.805 197.852C230.939 197.503 231.005 197.109 231.005 196.672C231.005 196.24 230.94 195.852 230.809 195.508C230.681 195.165 230.488 194.893 230.23 194.694C229.974 194.495 229.654 194.396 229.271 194.396C228.902 194.396 228.589 194.491 228.333 194.682C228.081 194.872 227.889 195.138 227.758 195.478C227.627 195.819 227.562 196.217 227.562 196.672ZM235.625 200.089C235.21 200.089 234.835 200.013 234.5 199.859C234.164 199.703 233.899 199.477 233.703 199.182C233.51 198.886 233.413 198.524 233.413 198.095C233.413 197.726 233.484 197.422 233.626 197.183C233.768 196.944 233.96 196.755 234.201 196.616C234.443 196.477 234.713 196.372 235.011 196.301C235.309 196.23 235.613 196.176 235.923 196.139C236.315 196.093 236.633 196.057 236.877 196.028C237.122 195.997 237.299 195.947 237.41 195.879C237.521 195.811 237.576 195.7 237.576 195.547V195.517C237.576 195.145 237.471 194.856 237.261 194.652C237.054 194.447 236.744 194.345 236.332 194.345C235.903 194.345 235.565 194.44 235.318 194.63C235.074 194.818 234.904 195.027 234.811 195.257L233.613 194.984C233.755 194.586 233.963 194.265 234.235 194.021C234.511 193.774 234.828 193.595 235.186 193.484C235.544 193.37 235.92 193.314 236.315 193.314C236.576 193.314 236.853 193.345 237.146 193.407C237.441 193.467 237.717 193.578 237.973 193.74C238.231 193.902 238.443 194.133 238.608 194.434C238.772 194.733 238.855 195.12 238.855 195.598V199.944H237.61V199.049H237.559C237.477 199.214 237.353 199.376 237.189 199.535C237.024 199.694 236.812 199.826 236.554 199.932C236.295 200.037 235.985 200.089 235.625 200.089ZM235.902 199.066C236.254 199.066 236.555 198.997 236.805 198.858C237.058 198.718 237.25 198.537 237.38 198.312C237.514 198.085 237.581 197.842 237.581 197.584V196.74C237.535 196.785 237.447 196.828 237.316 196.868C237.189 196.905 237.042 196.937 236.877 196.966C236.713 196.991 236.552 197.015 236.396 197.038C236.24 197.058 236.109 197.075 236.004 197.089C235.757 197.12 235.531 197.173 235.326 197.247C235.125 197.321 234.963 197.427 234.841 197.566C234.721 197.703 234.662 197.885 234.662 198.112C234.662 198.427 234.778 198.666 235.011 198.828C235.244 198.987 235.541 199.066 235.902 199.066ZM241.123 202.399C240.933 202.399 240.759 202.383 240.603 202.352C240.447 202.324 240.33 202.292 240.254 202.258L240.56 201.214C240.793 201.277 241.001 201.304 241.183 201.295C241.364 201.287 241.525 201.218 241.664 201.091C241.806 200.963 241.931 200.754 242.039 200.464L242.197 200.03L239.802 193.399H241.165L242.823 198.478H242.891L244.549 193.399H245.917L243.219 200.818C243.094 201.159 242.935 201.447 242.742 201.683C242.549 201.922 242.319 202.101 242.052 202.22C241.785 202.339 241.475 202.399 241.123 202.399ZM253.405 193.399V194.422H249.706V193.399H253.405ZM250.721 199.944V192.64C250.721 192.231 250.81 191.892 250.989 191.622C251.168 191.349 251.405 191.146 251.701 191.013C251.996 190.876 252.317 190.808 252.664 190.808C252.919 190.808 253.138 190.829 253.32 190.872C253.502 190.912 253.637 190.949 253.725 190.983L253.426 192.014C253.367 191.997 253.29 191.977 253.196 191.954C253.103 191.929 252.989 191.916 252.855 191.916C252.546 191.916 252.324 191.993 252.191 192.146C252.06 192.299 251.995 192.521 251.995 192.811V199.944H250.721ZM257.219 200.076C256.605 200.076 256.07 199.936 255.613 199.655C255.155 199.373 254.8 198.98 254.547 198.474C254.294 197.968 254.168 197.378 254.168 196.701C254.168 196.022 254.294 195.429 254.547 194.92C254.8 194.412 255.155 194.017 255.613 193.736C256.07 193.454 256.605 193.314 257.219 193.314C257.833 193.314 258.368 193.454 258.826 193.736C259.283 194.017 259.638 194.412 259.891 194.92C260.144 195.429 260.27 196.022 260.27 196.701C260.27 197.378 260.144 197.968 259.891 198.474C259.638 198.98 259.283 199.373 258.826 199.655C258.368 199.936 257.833 200.076 257.219 200.076ZM257.223 199.007C257.621 199.007 257.951 198.902 258.212 198.691C258.473 198.481 258.667 198.201 258.792 197.852C258.919 197.503 258.983 197.118 258.983 196.697C258.983 196.28 258.919 195.896 258.792 195.547C258.667 195.194 258.473 194.912 258.212 194.699C257.951 194.486 257.621 194.379 257.223 194.379C256.823 194.379 256.49 194.486 256.226 194.699C255.965 194.912 255.77 195.194 255.642 195.547C255.517 195.896 255.455 196.28 255.455 196.697C255.455 197.118 255.517 197.503 255.642 197.852C255.77 198.201 255.965 198.481 256.226 198.691C256.49 198.902 256.823 199.007 257.223 199.007ZM261.692 199.944V193.399H262.924V194.439H262.992C263.112 194.086 263.322 193.809 263.623 193.608C263.927 193.403 264.271 193.301 264.654 193.301C264.734 193.301 264.827 193.304 264.935 193.309C265.046 193.315 265.133 193.322 265.195 193.331V194.549C265.144 194.535 265.053 194.52 264.923 194.503C264.792 194.483 264.661 194.473 264.531 194.473C264.229 194.473 263.961 194.537 263.725 194.665C263.492 194.79 263.308 194.964 263.171 195.189C263.035 195.41 262.967 195.663 262.967 195.947V199.944H261.692ZM269.576 199.944V191.217H270.85V194.46H270.927C271.001 194.324 271.107 194.166 271.246 193.987C271.386 193.808 271.579 193.652 271.826 193.518C272.073 193.382 272.4 193.314 272.806 193.314C273.335 193.314 273.806 193.447 274.221 193.714C274.636 193.981 274.961 194.366 275.197 194.869C275.435 195.372 275.555 195.977 275.555 196.684C275.555 197.392 275.437 197.998 275.201 198.504C274.965 199.007 274.641 199.395 274.229 199.667C273.817 199.937 273.347 200.072 272.819 200.072C272.421 200.072 272.096 200.005 271.843 199.872C271.593 199.738 271.397 199.582 271.255 199.403C271.113 199.224 271.004 199.065 270.927 198.926H270.82V199.944H269.576ZM270.825 196.672C270.825 197.132 270.891 197.535 271.025 197.882C271.158 198.228 271.352 198.5 271.604 198.696C271.857 198.889 272.167 198.986 272.533 198.986C272.914 198.986 273.232 198.885 273.488 198.683C273.744 198.478 273.937 198.201 274.067 197.852C274.201 197.503 274.268 197.109 274.268 196.672C274.268 196.24 274.202 195.852 274.072 195.508C273.944 195.165 273.751 194.893 273.492 194.694C273.237 194.495 272.917 194.396 272.533 194.396C272.164 194.396 271.852 194.491 271.596 194.682C271.343 194.872 271.151 195.138 271.021 195.478C270.89 195.819 270.825 196.217 270.825 196.672ZM276.985 199.944V193.399H278.26V199.944H276.985ZM277.629 192.389C277.407 192.389 277.217 192.315 277.058 192.167C276.902 192.017 276.824 191.838 276.824 191.63C276.824 191.42 276.902 191.241 277.058 191.093C277.217 190.943 277.407 190.868 277.629 190.868C277.85 190.868 278.039 190.943 278.196 191.093C278.355 191.241 278.434 191.42 278.434 191.63C278.434 191.838 278.355 192.017 278.196 192.167C278.039 192.315 277.85 192.389 277.629 192.389ZM281.248 191.217V199.944H279.974V191.217H281.248ZM284.236 191.217V199.944H282.962V191.217H284.236ZM290.855 194.997L289.7 195.201C289.652 195.054 289.575 194.913 289.47 194.78C289.368 194.646 289.229 194.537 289.053 194.451C288.876 194.366 288.656 194.324 288.392 194.324C288.031 194.324 287.73 194.405 287.489 194.566C287.247 194.726 287.126 194.932 287.126 195.184C287.126 195.403 287.207 195.579 287.369 195.713C287.531 195.846 287.793 195.956 288.153 196.041L289.193 196.28C289.795 196.419 290.244 196.633 290.54 196.923C290.835 197.213 290.983 197.589 290.983 198.052C290.983 198.444 290.869 198.794 290.642 199.101C290.418 199.405 290.104 199.643 289.7 199.816C289.3 199.99 288.835 200.076 288.307 200.076C287.574 200.076 286.976 199.92 286.513 199.608C286.05 199.292 285.766 198.845 285.661 198.265L286.892 198.078C286.969 198.399 287.126 198.642 287.365 198.807C287.604 198.968 287.915 199.049 288.298 199.049C288.716 199.049 289.05 198.963 289.3 198.79C289.55 198.613 289.675 198.399 289.675 198.146C289.675 197.941 289.598 197.77 289.445 197.63C289.294 197.491 289.062 197.386 288.75 197.315L287.642 197.072C287.031 196.933 286.58 196.711 286.287 196.407C285.997 196.103 285.852 195.718 285.852 195.253C285.852 194.866 285.96 194.528 286.176 194.238C286.392 193.949 286.69 193.723 287.071 193.561C287.452 193.396 287.888 193.314 288.379 193.314C289.087 193.314 289.643 193.467 290.05 193.774C290.456 194.078 290.724 194.486 290.855 194.997ZM298.317 200.076C297.703 200.076 297.168 199.936 296.71 199.655C296.253 199.373 295.898 198.98 295.645 198.474C295.392 197.968 295.266 197.378 295.266 196.701C295.266 196.022 295.392 195.429 295.645 194.92C295.898 194.412 296.253 194.017 296.71 193.736C297.168 193.454 297.703 193.314 298.317 193.314C298.93 193.314 299.466 193.454 299.923 193.736C300.381 194.017 300.736 194.412 300.989 194.92C301.241 195.429 301.368 196.022 301.368 196.701C301.368 197.378 301.241 197.968 300.989 198.474C300.736 198.98 300.381 199.373 299.923 199.655C299.466 199.936 298.93 200.076 298.317 200.076ZM298.321 199.007C298.719 199.007 299.048 198.902 299.31 198.691C299.571 198.481 299.764 198.201 299.889 197.852C300.017 197.503 300.081 197.118 300.081 196.697C300.081 196.28 300.017 195.896 299.889 195.547C299.764 195.194 299.571 194.912 299.31 194.699C299.048 194.486 298.719 194.379 298.321 194.379C297.92 194.379 297.588 194.486 297.324 194.699C297.063 194.912 296.868 195.194 296.74 195.547C296.615 195.896 296.553 196.28 296.553 196.697C296.553 197.118 296.615 197.503 296.74 197.852C296.868 198.201 297.063 198.481 297.324 198.691C297.588 198.902 297.92 199.007 298.321 199.007ZM304.064 196.058V199.944H302.79V193.399H304.013V194.464H304.094C304.245 194.118 304.48 193.839 304.801 193.629C305.125 193.419 305.533 193.314 306.025 193.314C306.471 193.314 306.861 193.407 307.196 193.595C307.532 193.78 307.792 194.055 307.976 194.422C308.161 194.788 308.253 195.241 308.253 195.781V199.944H306.979V195.934C306.979 195.46 306.855 195.089 306.608 194.822C306.361 194.552 306.022 194.417 305.59 194.417C305.294 194.417 305.032 194.481 304.801 194.609C304.574 194.737 304.394 194.924 304.26 195.172C304.13 195.416 304.064 195.711 304.064 196.058ZM313.24 199.944V191.217H316.436C317.055 191.217 317.568 191.319 317.974 191.524C318.381 191.726 318.685 192 318.886 192.346C319.088 192.69 319.189 193.078 319.189 193.51C319.189 193.873 319.122 194.18 318.989 194.43C318.855 194.677 318.676 194.876 318.452 195.027C318.23 195.174 317.986 195.282 317.719 195.351V195.436C318.009 195.45 318.291 195.544 318.567 195.717C318.845 195.888 319.075 196.13 319.257 196.446C319.439 196.761 319.53 197.145 319.53 197.596C319.53 198.042 319.425 198.443 319.214 198.798C319.007 199.15 318.686 199.43 318.251 199.638C317.817 199.842 317.261 199.944 316.585 199.944H313.24ZM314.557 198.815H316.457C317.088 198.815 317.54 198.693 317.812 198.449C318.085 198.204 318.222 197.899 318.222 197.532C318.222 197.257 318.152 197.004 318.013 196.774C317.874 196.544 317.675 196.361 317.416 196.224C317.161 196.088 316.857 196.02 316.504 196.02H314.557V198.815ZM314.557 194.993H316.321C316.616 194.993 316.882 194.936 317.118 194.822C317.357 194.709 317.545 194.549 317.685 194.345C317.827 194.138 317.898 193.893 317.898 193.612C317.898 193.251 317.771 192.949 317.518 192.704C317.266 192.46 316.878 192.338 316.355 192.338H314.557V194.993ZM323.746 200.076C323.133 200.076 322.597 199.936 322.14 199.655C321.683 199.373 321.327 198.98 321.075 198.474C320.822 197.968 320.695 197.378 320.695 196.701C320.695 196.022 320.822 195.429 321.075 194.92C321.327 194.412 321.683 194.017 322.14 193.736C322.597 193.454 323.133 193.314 323.746 193.314C324.36 193.314 324.896 193.454 325.353 193.736C325.81 194.017 326.165 194.412 326.418 194.92C326.671 195.429 326.798 196.022 326.798 196.701C326.798 197.378 326.671 197.968 326.418 198.474C326.165 198.98 325.81 199.373 325.353 199.655C324.896 199.936 324.36 200.076 323.746 200.076ZM323.751 199.007C324.148 199.007 324.478 198.902 324.739 198.691C325.001 198.481 325.194 198.201 325.319 197.852C325.447 197.503 325.511 197.118 325.511 196.697C325.511 196.28 325.447 195.896 325.319 195.547C325.194 195.194 325.001 194.912 324.739 194.699C324.478 194.486 324.148 194.379 323.751 194.379C323.35 194.379 323.018 194.486 322.754 194.699C322.492 194.912 322.298 195.194 322.17 195.547C322.045 195.896 321.982 196.28 321.982 196.697C321.982 197.118 322.045 197.503 322.17 197.852C322.298 198.201 322.492 198.481 322.754 198.691C323.018 198.902 323.35 199.007 323.751 199.007ZM329.494 191.217V199.944H328.22V191.217H329.494ZM333.658 200.072C333.13 200.072 332.658 199.937 332.244 199.667C331.832 199.395 331.508 199.007 331.272 198.504C331.039 197.998 330.923 197.392 330.923 196.684C330.923 195.977 331.04 195.372 331.276 194.869C331.515 194.366 331.842 193.981 332.256 193.714C332.671 193.447 333.141 193.314 333.667 193.314C334.073 193.314 334.4 193.382 334.647 193.518C334.897 193.652 335.09 193.808 335.227 193.987C335.366 194.166 335.474 194.324 335.55 194.46H335.627V191.217H336.901V199.944H335.657V198.926H335.55C335.474 199.065 335.363 199.224 335.218 199.403C335.076 199.582 334.88 199.738 334.63 199.872C334.38 200.005 334.056 200.072 333.658 200.072ZM333.94 198.986C334.306 198.986 334.616 198.889 334.869 198.696C335.124 198.5 335.317 198.228 335.448 197.882C335.582 197.535 335.648 197.132 335.648 196.672C335.648 196.217 335.583 195.819 335.452 195.478C335.322 195.138 335.13 194.872 334.877 194.682C334.624 194.491 334.312 194.396 333.94 194.396C333.556 194.396 333.237 194.495 332.981 194.694C332.725 194.893 332.532 195.165 332.401 195.508C332.273 195.852 332.21 196.24 332.21 196.672C332.21 197.109 332.275 197.503 332.406 197.852C332.536 198.201 332.729 198.478 332.985 198.683C333.244 198.885 333.562 198.986 333.94 198.986Z" fill="#764DFF"/>
</g>
<path d="M31.7188 256.51C31.6733 256.106 31.4858 255.794 31.1562 255.572C30.8267 255.348 30.4119 255.236 29.9119 255.236C29.554 255.236 29.2443 255.292 28.983 255.406C28.7216 255.517 28.5185 255.67 28.3736 255.866C28.2315 256.059 28.1605 256.28 28.1605 256.527C28.1605 256.734 28.2088 256.913 28.3054 257.064C28.4048 257.214 28.5341 257.341 28.6932 257.443C28.8551 257.542 29.0284 257.626 29.2131 257.694C29.3977 257.76 29.5753 257.814 29.7457 257.856L30.598 258.078C30.8764 258.146 31.1619 258.238 31.4545 258.355C31.7472 258.471 32.0185 258.625 32.2685 258.815C32.5185 259.005 32.7202 259.241 32.8736 259.522C33.0298 259.804 33.108 260.14 33.108 260.532C33.108 261.027 32.9801 261.466 32.7244 261.849C32.4716 262.233 32.1037 262.535 31.6207 262.757C31.1406 262.978 30.5597 263.089 29.8778 263.089C29.2244 263.089 28.6591 262.986 28.1818 262.778C27.7045 262.571 27.331 262.277 27.0611 261.896C26.7912 261.513 26.642 261.058 26.6136 260.532H27.9347C27.9602 260.848 28.0625 261.111 28.2415 261.321C28.4233 261.528 28.6548 261.683 28.9361 261.785C29.2202 261.885 29.5312 261.934 29.8693 261.934C30.2415 261.934 30.5724 261.876 30.8622 261.76C31.1548 261.64 31.3849 261.476 31.5526 261.265C31.7202 261.052 31.804 260.804 31.804 260.52C31.804 260.261 31.7301 260.049 31.5824 259.885C31.4375 259.72 31.2401 259.584 30.9901 259.476C30.7429 259.368 30.4631 259.272 30.1506 259.19L29.1193 258.909C28.4205 258.718 27.8665 258.439 27.4574 258.069C27.0511 257.7 26.848 257.211 26.848 256.603C26.848 256.101 26.9844 255.662 27.2571 255.287C27.5298 254.912 27.8991 254.62 28.3651 254.413C28.831 254.203 29.3565 254.098 29.9418 254.098C30.5327 254.098 31.054 254.201 31.5057 254.409C31.9602 254.616 32.3182 254.902 32.5795 255.265C32.8409 255.626 32.9773 256.041 32.9886 256.51H31.7188ZM37.4002 263.076C36.7553 263.076 36.1999 262.939 35.734 262.663C35.271 262.385 34.913 261.994 34.6602 261.491C34.4102 260.986 34.2852 260.393 34.2852 259.714C34.2852 259.044 34.4102 258.453 34.6602 257.941C34.913 257.43 35.2653 257.031 35.717 256.744C36.1715 256.457 36.7028 256.314 37.3107 256.314C37.68 256.314 38.038 256.375 38.3846 256.497C38.7312 256.619 39.0423 256.811 39.3178 257.072C39.5934 257.334 39.8107 257.673 39.9698 258.091C40.1289 258.505 40.2085 259.01 40.2085 259.603V260.055H35.0053V259.101H38.9599C38.9599 258.765 38.8917 258.468 38.7553 258.21C38.619 257.949 38.4272 257.743 38.18 257.592C37.9357 257.441 37.6488 257.366 37.3192 257.366C36.9613 257.366 36.6488 257.454 36.3817 257.63C36.1175 257.804 35.913 258.031 35.7681 258.312C35.6261 258.591 35.555 258.893 35.555 259.22V259.966C35.555 260.403 35.6317 260.775 35.7852 261.082C35.9414 261.389 36.1587 261.623 36.4371 261.785C36.7156 261.944 37.0408 262.024 37.413 262.024C37.6545 262.024 37.8746 261.99 38.0735 261.922C38.2724 261.851 38.4442 261.745 38.5891 261.606C38.734 261.467 38.8448 261.295 38.9215 261.091L40.1275 261.308C40.0309 261.663 39.8576 261.974 39.6076 262.241C39.3604 262.505 39.0494 262.711 38.6744 262.859C38.3022 263.004 37.8775 263.076 37.4002 263.076ZM42.8963 254.217V262.944H41.6222V254.217H42.8963ZM47.4315 263.076C46.7866 263.076 46.2312 262.939 45.7653 262.663C45.3022 262.385 44.9442 261.994 44.6914 261.491C44.4414 260.986 44.3164 260.393 44.3164 259.714C44.3164 259.044 44.4414 258.453 44.6914 257.941C44.9442 257.43 45.2965 257.031 45.7482 256.744C46.2028 256.457 46.734 256.314 47.342 256.314C47.7113 256.314 48.0692 256.375 48.4158 256.497C48.7624 256.619 49.0735 256.811 49.3491 257.072C49.6246 257.334 49.842 257.673 50.0011 258.091C50.1602 258.505 50.2397 259.01 50.2397 259.603V260.055H45.0366V259.101H48.9911C48.9911 258.765 48.9229 258.468 48.7866 258.21C48.6502 257.949 48.4585 257.743 48.2113 257.592C47.967 257.441 47.68 257.366 47.3505 257.366C46.9925 257.366 46.68 257.454 46.413 257.63C46.1488 257.804 45.9442 258.031 45.7994 258.312C45.6573 258.591 45.5863 258.893 45.5863 259.22V259.966C45.5863 260.403 45.663 260.775 45.8164 261.082C45.9727 261.389 46.19 261.623 46.4684 261.785C46.7468 261.944 47.0721 262.024 47.4442 262.024C47.6857 262.024 47.9059 261.99 48.1048 261.922C48.3036 261.851 48.4755 261.745 48.6204 261.606C48.7653 261.467 48.8761 261.295 48.9528 261.091L50.1587 261.308C50.0621 261.663 49.8888 261.974 49.6388 262.241C49.3917 262.505 49.0806 262.711 48.7056 262.859C48.3335 263.004 47.9087 263.076 47.4315 263.076ZM54.4105 263.076C53.777 263.076 53.2315 262.933 52.7741 262.646C52.3196 262.356 51.9702 261.957 51.7259 261.449C51.4815 260.94 51.3594 260.358 51.3594 259.701C51.3594 259.037 51.4844 258.45 51.7344 257.941C51.9844 257.43 52.3366 257.031 52.7912 256.744C53.2457 256.457 53.7813 256.314 54.3977 256.314C54.8949 256.314 55.3381 256.406 55.7273 256.591C56.1165 256.772 56.4304 257.028 56.669 257.358C56.9105 257.687 57.054 258.072 57.0994 258.513H55.8594C55.7912 258.206 55.6349 257.941 55.3906 257.72C55.1491 257.498 54.8253 257.388 54.419 257.388C54.0639 257.388 53.7528 257.481 53.4858 257.669C53.2216 257.853 53.0156 258.118 52.8679 258.461C52.7202 258.802 52.6463 259.206 52.6463 259.672C52.6463 260.149 52.7188 260.561 52.8636 260.907C53.0085 261.254 53.2131 261.522 53.4773 261.713C53.7443 261.903 54.0582 261.998 54.419 261.998C54.6605 261.998 54.8793 261.954 55.0753 261.866C55.2741 261.775 55.4403 261.646 55.5739 261.478C55.7102 261.311 55.8054 261.109 55.8594 260.873H57.0994C57.054 261.297 56.9162 261.674 56.6861 262.007C56.456 262.339 56.1477 262.601 55.7614 262.791C55.3778 262.981 54.9276 263.076 54.4105 263.076ZM61.5174 256.399V257.422H57.9421V256.399H61.5174ZM58.9009 254.831H60.1751V261.022C60.1751 261.27 60.212 261.456 60.2859 261.581C60.3597 261.703 60.4549 261.787 60.5714 261.832C60.6907 261.875 60.82 261.896 60.9592 261.896C61.0614 261.896 61.1509 261.889 61.2276 261.875C61.3043 261.861 61.364 261.849 61.4066 261.841L61.6367 262.893C61.5629 262.922 61.4577 262.95 61.3214 262.978C61.185 263.01 61.0146 263.027 60.81 263.03C60.4748 263.035 60.1623 262.976 59.8725 262.851C59.5827 262.726 59.3484 262.532 59.1694 262.271C58.9904 262.01 58.9009 261.682 58.9009 261.287V254.831ZM70.9648 256.51C70.9194 256.106 70.7319 255.794 70.4023 255.572C70.0728 255.348 69.658 255.236 69.158 255.236C68.8001 255.236 68.4904 255.292 68.229 255.406C67.9677 255.517 67.7646 255.67 67.6197 255.866C67.4776 256.059 67.4066 256.28 67.4066 256.527C67.4066 256.734 67.4549 256.913 67.5515 257.064C67.6509 257.214 67.7802 257.341 67.9393 257.443C68.1012 257.542 68.2745 257.626 68.4592 257.694C68.6438 257.76 68.8214 257.814 68.9918 257.856L69.8441 258.078C70.1225 258.146 70.408 258.238 70.7006 258.355C70.9933 258.471 71.2646 258.625 71.5146 258.815C71.7646 259.005 71.9663 259.241 72.1197 259.522C72.2759 259.804 72.354 260.14 72.354 260.532C72.354 261.027 72.2262 261.466 71.9705 261.849C71.7177 262.233 71.3498 262.535 70.8668 262.757C70.3867 262.978 69.8058 263.089 69.1239 263.089C68.4705 263.089 67.9052 262.986 67.4279 262.778C66.9506 262.571 66.5771 262.277 66.3072 261.896C66.0373 261.513 65.8881 261.058 65.8597 260.532H67.1808C67.2063 260.848 67.3086 261.111 67.4876 261.321C67.6694 261.528 67.9009 261.683 68.1822 261.785C68.4663 261.885 68.7773 261.934 69.1154 261.934C69.4876 261.934 69.8185 261.876 70.1083 261.76C70.4009 261.64 70.631 261.476 70.7987 261.265C70.9663 261.052 71.0501 260.804 71.0501 260.52C71.0501 260.261 70.9762 260.049 70.8285 259.885C70.6836 259.72 70.4862 259.584 70.2362 259.476C69.989 259.368 69.7092 259.272 69.3967 259.19L68.3654 258.909C67.6665 258.718 67.1126 258.439 66.7035 258.069C66.2972 257.7 66.0941 257.211 66.0941 256.603C66.0941 256.101 66.2305 255.662 66.5032 255.287C66.7759 254.912 67.1452 254.62 67.6112 254.413C68.0771 254.203 68.6026 254.098 69.1879 254.098C69.7788 254.098 70.3001 254.201 70.7518 254.409C71.2063 254.616 71.5643 254.902 71.8256 255.265C72.087 255.626 72.2234 256.041 72.2347 256.51H70.9648ZM76.6463 263.076C76.0014 263.076 75.446 262.939 74.9801 262.663C74.517 262.385 74.1591 261.994 73.9062 261.491C73.6562 260.986 73.5312 260.393 73.5312 259.714C73.5312 259.044 73.6562 258.453 73.9062 257.941C74.1591 257.43 74.5114 257.031 74.9631 256.744C75.4176 256.457 75.9489 256.314 76.5568 256.314C76.9261 256.314 77.2841 256.375 77.6307 256.497C77.9773 256.619 78.2884 256.811 78.5639 257.072C78.8395 257.334 79.0568 257.673 79.2159 258.091C79.375 258.505 79.4545 259.01 79.4545 259.603V260.055H74.2514V259.101H78.206C78.206 258.765 78.1378 258.468 78.0014 258.21C77.8651 257.949 77.6733 257.743 77.4261 257.592C77.1818 257.441 76.8949 257.366 76.5653 257.366C76.2074 257.366 75.8949 257.454 75.6278 257.63C75.3636 257.804 75.1591 258.031 75.0142 258.312C74.8722 258.591 74.8011 258.893 74.8011 259.22V259.966C74.8011 260.403 74.8778 260.775 75.0312 261.082C75.1875 261.389 75.4048 261.623 75.6832 261.785C75.9616 261.944 76.2869 262.024 76.6591 262.024C76.9006 262.024 77.1207 261.99 77.3196 261.922C77.5185 261.851 77.6903 261.745 77.8352 261.606C77.9801 261.467 78.0909 261.295 78.1676 261.091L79.3736 261.308C79.277 261.663 79.1037 261.974 78.8537 262.241C78.6065 262.505 78.2955 262.711 77.9205 262.859C77.5483 263.004 77.1236 263.076 76.6463 263.076ZM80.8683 262.944V256.399H82.0998V257.439H82.168C82.2873 257.086 82.4975 256.809 82.7987 256.608C83.1026 256.403 83.4464 256.301 83.8299 256.301C83.9094 256.301 84.0032 256.304 84.1112 256.309C84.2219 256.315 84.3086 256.322 84.3711 256.331V257.549C84.32 257.535 84.229 257.52 84.0984 257.503C83.9677 257.483 83.837 257.473 83.7063 257.473C83.4052 257.473 83.1367 257.537 82.9009 257.665C82.668 257.79 82.4833 257.964 82.3469 258.189C82.2106 258.41 82.1424 258.663 82.1424 258.947V262.944H80.8683ZM91.2724 256.399L88.8988 262.944H87.5352L85.1573 256.399H86.5252L88.1829 261.436H88.2511L89.9045 256.399H91.2724ZM92.4698 262.944V256.399H93.744V262.944H92.4698ZM93.1133 255.389C92.8917 255.389 92.7013 255.315 92.5423 255.167C92.386 255.017 92.3079 254.838 92.3079 254.63C92.3079 254.42 92.386 254.241 92.5423 254.093C92.7013 253.943 92.8917 253.868 93.1133 253.868C93.3349 253.868 93.5238 253.943 93.68 254.093C93.8391 254.241 93.9187 254.42 93.9187 254.63C93.9187 254.838 93.8391 255.017 93.68 255.167C93.5238 255.315 93.3349 255.389 93.1133 255.389ZM98.2152 263.076C97.5817 263.076 97.0362 262.933 96.5788 262.646C96.1243 262.356 95.7749 261.957 95.5305 261.449C95.2862 260.94 95.1641 260.358 95.1641 259.701C95.1641 259.037 95.2891 258.45 95.5391 257.941C95.7891 257.43 96.1413 257.031 96.5959 256.744C97.0504 256.457 97.5859 256.314 98.2024 256.314C98.6996 256.314 99.1428 256.406 99.532 256.591C99.9212 256.772 100.235 257.028 100.474 257.358C100.715 257.687 100.859 258.072 100.904 258.513H99.6641C99.5959 258.206 99.4396 257.941 99.1953 257.72C98.9538 257.498 98.63 257.388 98.2237 257.388C97.8686 257.388 97.5575 257.481 97.2905 257.669C97.0263 257.853 96.8203 258.118 96.6726 258.461C96.5249 258.802 96.451 259.206 96.451 259.672C96.451 260.149 96.5234 260.561 96.6683 260.907C96.8132 261.254 97.0178 261.522 97.282 261.713C97.549 261.903 97.8629 261.998 98.2237 261.998C98.4652 261.998 98.6839 261.954 98.88 261.866C99.0788 261.775 99.245 261.646 99.3786 261.478C99.5149 261.311 99.6101 261.109 99.6641 260.873H100.904C100.859 261.297 100.721 261.674 100.491 262.007C100.261 262.339 99.9524 262.601 99.5661 262.791C99.1825 262.981 98.7322 263.076 98.2152 263.076ZM105.088 263.076C104.443 263.076 103.887 262.939 103.422 262.663C102.958 262.385 102.6 261.994 102.348 261.491C102.098 260.986 101.973 260.393 101.973 259.714C101.973 259.044 102.098 258.453 102.348 257.941C102.6 257.43 102.953 257.031 103.404 256.744C103.859 256.457 104.39 256.314 104.998 256.314C105.368 256.314 105.725 256.375 106.072 256.497C106.419 256.619 106.73 256.811 107.005 257.072C107.281 257.334 107.498 257.673 107.657 258.091C107.816 258.505 107.896 259.01 107.896 259.603V260.055H102.693V259.101H106.647C106.647 258.765 106.579 258.468 106.443 258.21C106.306 257.949 106.115 257.743 105.868 257.592C105.623 257.441 105.336 257.366 105.007 257.366C104.649 257.366 104.336 257.454 104.069 257.63C103.805 257.804 103.6 258.031 103.456 258.312C103.314 258.591 103.243 258.893 103.243 259.22V259.966C103.243 260.403 103.319 260.775 103.473 261.082C103.629 261.389 103.846 261.623 104.125 261.785C104.403 261.944 104.728 262.024 105.1 262.024C105.342 262.024 105.562 261.99 105.761 261.922C105.96 261.851 106.132 261.745 106.277 261.606C106.422 261.467 106.532 261.295 106.609 261.091L107.815 261.308C107.718 261.663 107.545 261.974 107.295 262.241C107.048 262.505 106.737 262.711 106.362 262.859C105.99 263.004 105.565 263.076 105.088 263.076ZM112.588 262.944V254.217H115.699C116.377 254.217 116.94 254.341 117.386 254.588C117.832 254.835 118.166 255.173 118.387 255.602C118.609 256.028 118.72 256.508 118.72 257.042C118.72 257.579 118.608 258.062 118.383 258.491C118.162 258.917 117.826 259.255 117.377 259.505C116.931 259.753 116.37 259.876 115.694 259.876H113.555V258.76H115.575C116.004 258.76 116.352 258.686 116.619 258.538C116.886 258.388 117.082 258.183 117.207 257.924C117.332 257.666 117.395 257.372 117.395 257.042C117.395 256.713 117.332 256.42 117.207 256.165C117.082 255.909 116.885 255.709 116.615 255.564C116.348 255.419 115.995 255.346 115.558 255.346H113.904V262.944H112.588ZM120.161 262.944V256.399H121.393V257.439H121.461C121.58 257.086 121.79 256.809 122.092 256.608C122.396 256.403 122.739 256.301 123.123 256.301C123.202 256.301 123.296 256.304 123.404 256.309C123.515 256.315 123.602 256.322 123.664 256.331V257.549C123.613 257.535 123.522 257.52 123.391 257.503C123.261 257.483 123.13 257.473 122.999 257.473C122.698 257.473 122.43 257.537 122.194 257.665C121.961 257.79 121.776 257.964 121.64 258.189C121.504 258.41 121.435 258.663 121.435 258.947V262.944H120.161ZM127.289 263.076C126.676 263.076 126.14 262.936 125.683 262.655C125.225 262.373 124.87 261.98 124.618 261.474C124.365 260.968 124.238 260.378 124.238 259.701C124.238 259.022 124.365 258.429 124.618 257.92C124.87 257.412 125.225 257.017 125.683 256.736C126.14 256.454 126.676 256.314 127.289 256.314C127.903 256.314 128.439 256.454 128.896 256.736C129.353 257.017 129.708 257.412 129.961 257.92C130.214 258.429 130.341 259.022 130.341 259.701C130.341 260.378 130.214 260.968 129.961 261.474C129.708 261.98 129.353 262.373 128.896 262.655C128.439 262.936 127.903 263.076 127.289 263.076ZM127.294 262.007C127.691 262.007 128.021 261.902 128.282 261.691C128.544 261.481 128.737 261.201 128.862 260.852C128.99 260.503 129.054 260.118 129.054 259.697C129.054 259.28 128.99 258.896 128.862 258.547C128.737 258.194 128.544 257.912 128.282 257.699C128.021 257.486 127.691 257.379 127.294 257.379C126.893 257.379 126.561 257.486 126.297 257.699C126.035 257.912 125.841 258.194 125.713 258.547C125.588 258.896 125.525 259.28 125.525 259.697C125.525 260.118 125.588 260.503 125.713 260.852C125.841 261.201 126.035 261.481 126.297 261.691C126.561 261.902 126.893 262.007 127.294 262.007ZM137.14 256.399L134.766 262.944H133.402L131.025 256.399H132.392L134.05 261.436H134.118L135.772 256.399H137.14ZM138.337 262.944V256.399H139.611V262.944H138.337ZM138.98 255.389C138.759 255.389 138.569 255.315 138.409 255.167C138.253 255.017 138.175 254.838 138.175 254.63C138.175 254.42 138.253 254.241 138.409 254.093C138.569 253.943 138.759 253.868 138.98 253.868C139.202 253.868 139.391 253.943 139.547 254.093C139.706 254.241 139.786 254.42 139.786 254.63C139.786 254.838 139.706 255.017 139.547 255.167C139.391 255.315 139.202 255.389 138.98 255.389ZM143.776 263.072C143.247 263.072 142.776 262.937 142.361 262.667C141.949 262.395 141.625 262.007 141.389 261.504C141.156 260.998 141.04 260.392 141.04 259.684C141.04 258.977 141.158 258.372 141.393 257.869C141.632 257.366 141.959 256.981 142.374 256.714C142.788 256.447 143.259 256.314 143.784 256.314C144.19 256.314 144.517 256.382 144.764 256.518C145.014 256.652 145.207 256.808 145.344 256.987C145.483 257.166 145.591 257.324 145.668 257.46H145.744V254.217H147.018V262.944H145.774V261.926H145.668C145.591 262.065 145.48 262.224 145.335 262.403C145.193 262.582 144.997 262.738 144.747 262.872C144.497 263.005 144.173 263.072 143.776 263.072ZM144.057 261.986C144.423 261.986 144.733 261.889 144.986 261.696C145.241 261.5 145.435 261.228 145.565 260.882C145.699 260.535 145.766 260.132 145.766 259.672C145.766 259.217 145.7 258.819 145.57 258.478C145.439 258.138 145.247 257.872 144.994 257.682C144.741 257.491 144.429 257.396 144.057 257.396C143.673 257.396 143.354 257.495 143.098 257.694C142.842 257.893 142.649 258.165 142.518 258.508C142.391 258.852 142.327 259.24 142.327 259.672C142.327 260.109 142.392 260.503 142.523 260.852C142.653 261.201 142.847 261.478 143.102 261.683C143.361 261.885 143.679 261.986 144.057 261.986ZM151.658 263.076C151.013 263.076 150.458 262.939 149.992 262.663C149.529 262.385 149.171 261.994 148.918 261.491C148.668 260.986 148.543 260.393 148.543 259.714C148.543 259.044 148.668 258.453 148.918 257.941C149.171 257.43 149.523 257.031 149.975 256.744C150.429 256.457 150.961 256.314 151.569 256.314C151.938 256.314 152.296 256.375 152.642 256.497C152.989 256.619 153.3 256.811 153.576 257.072C153.851 257.334 154.069 257.673 154.228 258.091C154.387 258.505 154.466 259.01 154.466 259.603V260.055H149.263V259.101H153.218C153.218 258.765 153.15 258.468 153.013 258.21C152.877 257.949 152.685 257.743 152.438 257.592C152.194 257.441 151.907 257.366 151.577 257.366C151.219 257.366 150.907 257.454 150.64 257.63C150.375 257.804 150.171 258.031 150.026 258.312C149.884 258.591 149.813 258.893 149.813 259.22V259.966C149.813 260.403 149.89 260.775 150.043 261.082C150.199 261.389 150.417 261.623 150.695 261.785C150.973 261.944 151.299 262.024 151.671 262.024C151.912 262.024 152.132 261.99 152.331 261.922C152.53 261.851 152.702 261.745 152.847 261.606C152.992 261.467 153.103 261.295 153.179 261.091L154.385 261.308C154.289 261.663 154.115 261.974 153.865 262.241C153.618 262.505 153.307 262.711 152.932 262.859C152.56 263.004 152.135 263.076 151.658 263.076ZM155.88 262.944V256.399H157.112V257.439H157.18C157.299 257.086 157.509 256.809 157.81 256.608C158.114 256.403 158.458 256.301 158.842 256.301C158.921 256.301 159.015 256.304 159.123 256.309C159.234 256.315 159.32 256.322 159.383 256.331V257.549C159.332 257.535 159.241 257.52 159.11 257.503C158.979 257.483 158.849 257.473 158.718 257.473C158.417 257.473 158.148 257.537 157.913 257.665C157.68 257.79 157.495 257.964 157.359 258.189C157.222 258.41 157.154 258.663 157.154 258.947V262.944H155.88Z" fill="#667085"/>
<g clip-path="url(#clip2_3178_1575)">
<rect x="26" y="275.944" width="447" height="163" rx="8" fill="white"/>
<rect width="401" height="1" transform="translate(26 275.944)" fill="white"/>
<path d="M46 351.944H451" stroke="#EFEFEF" stroke-opacity="0.45"/>
<path d="M107.045 325.944H103.278V314.308H107.165C108.305 314.308 109.284 314.541 110.102 315.007C110.92 315.469 111.547 316.134 111.983 317.001C112.422 317.865 112.642 318.901 112.642 320.109C112.642 321.321 112.42 322.363 111.977 323.234C111.538 324.105 110.902 324.776 110.068 325.245C109.235 325.711 108.227 325.944 107.045 325.944ZM105.034 324.41H106.949C107.835 324.41 108.572 324.244 109.159 323.91C109.746 323.573 110.186 323.086 110.477 322.45C110.769 321.81 110.915 321.03 110.915 320.109C110.915 319.196 110.769 318.422 110.477 317.785C110.189 317.149 109.759 316.666 109.188 316.336C108.616 316.007 107.905 315.842 107.057 315.842H105.034V324.41ZM121.172 317.365C121.111 316.827 120.861 316.41 120.422 316.115C119.982 315.816 119.429 315.666 118.763 315.666C118.286 315.666 117.873 315.742 117.524 315.893C117.176 316.041 116.905 316.245 116.712 316.507C116.522 316.764 116.428 317.058 116.428 317.388C116.428 317.664 116.492 317.903 116.621 318.103C116.753 318.304 116.926 318.473 117.138 318.609C117.354 318.742 117.585 318.853 117.831 318.944C118.077 319.031 118.314 319.103 118.541 319.16L119.678 319.456C120.049 319.547 120.429 319.67 120.82 319.825C121.21 319.98 121.571 320.185 121.905 320.439C122.238 320.692 122.507 321.007 122.712 321.382C122.92 321.757 123.024 322.206 123.024 322.728C123.024 323.388 122.854 323.973 122.513 324.484C122.176 324.995 121.685 325.399 121.041 325.694C120.401 325.99 119.626 326.138 118.717 326.138C117.846 326.138 117.092 325.999 116.456 325.723C115.82 325.446 115.321 325.054 114.962 324.547C114.602 324.035 114.403 323.429 114.365 322.728H116.126C116.161 323.149 116.297 323.499 116.536 323.78C116.778 324.056 117.087 324.263 117.462 324.399C117.84 324.531 118.255 324.598 118.706 324.598C119.202 324.598 119.643 324.52 120.03 324.365C120.42 324.206 120.727 323.986 120.95 323.706C121.174 323.422 121.286 323.09 121.286 322.711C121.286 322.367 121.187 322.084 120.99 321.865C120.797 321.645 120.534 321.463 120.2 321.319C119.871 321.175 119.498 321.049 119.081 320.939L117.706 320.564C116.774 320.31 116.036 319.937 115.49 319.444C114.948 318.952 114.678 318.3 114.678 317.49C114.678 316.819 114.859 316.234 115.223 315.734C115.587 315.234 116.079 314.846 116.7 314.569C117.321 314.289 118.022 314.149 118.803 314.149C119.59 314.149 120.286 314.287 120.888 314.564C121.494 314.84 121.971 315.221 122.32 315.706C122.668 316.187 122.85 316.74 122.865 317.365H121.172ZM124.548 315.819V314.308H133.554V315.819H129.923V325.944H128.173V315.819H124.548ZM136.561 314.308L139.8 323.785H139.93L143.169 314.308H145.067L140.879 325.944H138.851L134.663 314.308H136.561Z" fill="#344054"/>
<path d="M78.7167 302.944H61.1442C53.8654 302.944 47.9648 308.317 47.9648 314.944V330.944C47.9648 337.572 53.8654 342.944 61.1442 342.944H78.7167C85.9954 342.944 91.896 337.572 91.896 330.944V314.944C91.896 308.317 85.9954 302.944 78.7167 302.944Z" fill="#F8F8FA"/>
<circle cx="70" cy="322.944" r="15" fill="#179EDB"/>
<path d="M81.6736 322.026H81.1551C81.064 322.026 80.969 322.108 80.969 322.108L79.0058 324.455C78.9702 324.505 78.9148 324.505 78.8752 324.455L77.0426 322.108C77.0426 322.108 76.9674 322.026 76.8407 322.026H73.3575C73.3021 322.026 73.2467 321.975 73.2467 321.925V321.15C73.2467 321.031 73.1557 320.948 73.0251 320.948H67.6697C66.8345 320.98 66.4823 321.049 66.1142 321.251C65.7619 321.434 65.5759 321.672 65.5759 321.961C65.5759 322.263 65.8529 322.566 66.3912 322.854C66.5377 322.937 67.0404 323.157 67.8914 323.514C68.4297 323.752 68.7265 323.936 68.7067 324.119C68.6711 324.422 68.3743 324.523 67.6697 324.523H64.428C64.3528 324.523 64.2816 324.505 64.2816 324.455C64.2816 324.422 64.3013 324.404 64.337 324.386C65.0613 323.982 65.2988 323.46 65.2988 322.97C65.2988 322.044 64.4636 320.944 61.1309 320.944H58.2217C58.091 320.944 58 321.027 58 321.146V324.757C58 324.876 58.091 324.959 58.2217 324.959H61.1309C61.2417 324.959 61.3525 324.959 61.4475 324.959H68.7265C69.3915 324.959 69.914 324.858 70.2821 324.656C70.6343 324.473 70.8006 324.235 70.8006 323.946C70.8006 323.644 70.5235 323.355 69.9852 323.053C69.8546 322.97 69.3361 322.75 68.4851 322.393C67.9468 322.173 67.6697 321.989 67.6697 321.838C67.6697 321.535 68.022 321.384 68.7265 321.384H71.1885C71.2439 321.384 71.2993 321.434 71.2993 321.485V324.098C71.2993 324.487 71.5764 324.941 72.4274 324.941H79.1879C79.3541 324.941 79.4293 324.84 79.4293 324.84L81.7448 322.072C81.729 322.09 81.7686 322.026 81.6736 322.026ZM60.6876 324.519H59.9632C59.9078 324.519 59.8524 324.469 59.8524 324.419V321.467C59.8524 321.416 59.9078 321.366 59.9632 321.366H60.6876C62.4648 321.366 63.391 322.026 63.391 322.934C63.391 323.864 62.445 324.519 60.6876 324.519ZM76.9119 324.537H73.785C73.3575 324.537 73.2467 324.419 73.2467 324.116V322.53C73.2467 322.48 73.3021 322.447 73.3575 322.447H75.1743C75.2297 322.447 75.3049 322.48 75.3406 322.516L76.9713 324.455C76.9871 324.505 76.9713 324.537 76.9119 324.537Z" fill="white"/>
<path d="M445.02 324.974L449.039 320.993L445.058 316.974" stroke="#667085" stroke-width="1.2" stroke-linecap="round" stroke-linejoin="round"/>
<path d="M46 411.944H457" stroke="#EFEFEF" stroke-opacity="0.45"/>
<path d="M111.153 377.984C111.044 377.639 110.896 377.331 110.71 377.058C110.528 376.781 110.311 376.547 110.057 376.353C109.803 376.156 109.513 376.007 109.188 375.905C108.866 375.802 108.511 375.751 108.125 375.751C107.47 375.751 106.879 375.92 106.352 376.257C105.826 376.594 105.409 377.088 105.102 377.74C104.799 378.388 104.648 379.181 104.648 380.12C104.648 381.064 104.801 381.861 105.108 382.513C105.415 383.164 105.835 383.658 106.369 383.995C106.903 384.333 107.511 384.501 108.193 384.501C108.826 384.501 109.377 384.372 109.847 384.115C110.32 383.857 110.686 383.494 110.943 383.024C111.205 382.55 111.335 381.994 111.335 381.353L111.79 381.439H108.46V379.99H113.034V381.314C113.034 382.291 112.826 383.139 112.409 383.859C111.996 384.575 111.424 385.128 110.693 385.518C109.966 385.908 109.133 386.103 108.193 386.103C107.14 386.103 106.216 385.861 105.42 385.376C104.629 384.891 104.011 384.204 103.568 383.314C103.125 382.42 102.903 381.359 102.903 380.132C102.903 379.204 103.032 378.37 103.29 377.632C103.547 376.893 103.909 376.266 104.375 375.751C104.845 375.232 105.396 374.836 106.028 374.564C106.665 374.287 107.36 374.149 108.114 374.149C108.742 374.149 109.328 374.242 109.869 374.427C110.415 374.613 110.9 374.876 111.324 375.217C111.752 375.558 112.106 375.963 112.386 376.433C112.667 376.899 112.856 377.416 112.955 377.984H111.153ZM125.371 380.126C125.371 381.369 125.143 382.437 124.689 383.331C124.234 384.221 123.611 384.906 122.82 385.388C122.032 385.865 121.136 386.103 120.132 386.103C119.125 386.103 118.225 385.865 117.433 385.388C116.645 384.906 116.024 384.219 115.57 383.325C115.115 382.431 114.888 381.365 114.888 380.126C114.888 378.884 115.115 377.817 115.57 376.927C116.024 376.033 116.645 375.348 117.433 374.87C118.225 374.389 119.125 374.149 120.132 374.149C121.136 374.149 122.032 374.389 122.82 374.87C123.611 375.348 124.234 376.033 124.689 376.927C125.143 377.817 125.371 378.884 125.371 380.126ZM123.632 380.126C123.632 379.179 123.479 378.382 123.172 377.734C122.869 377.083 122.452 376.59 121.922 376.257C121.395 375.92 120.799 375.751 120.132 375.751C119.462 375.751 118.863 375.92 118.337 376.257C117.81 376.59 117.393 377.083 117.087 377.734C116.784 378.382 116.632 379.179 116.632 380.126C116.632 381.073 116.784 381.872 117.087 382.524C117.393 383.172 117.81 383.664 118.337 384.001C118.863 384.334 119.462 384.501 120.132 384.501C120.799 384.501 121.395 384.334 121.922 384.001C122.452 383.664 122.869 383.172 123.172 382.524C123.479 381.872 123.632 381.073 123.632 380.126ZM126.486 375.819V374.308H135.491V375.819H131.861V385.944H130.111V375.819H126.486ZM138.499 374.308L141.737 383.785H141.868L145.107 374.308H147.004L142.817 385.944H140.788L136.601 374.308H138.499Z" fill="#344054"/>
<path d="M78.7167 362.944H61.1442C53.8654 362.944 47.9648 368.317 47.9648 374.944V390.944C47.9648 397.572 53.8654 402.944 61.1442 402.944H78.7167C85.9954 402.944 91.896 397.572 91.896 390.944V374.944C91.896 368.317 85.9954 362.944 78.7167 362.944Z" fill="#F8F8FA"/>
<circle cx="70" cy="382.944" r="15" fill="white"/>
<path d="M81.6787 382.061H81.1721C81.0811 382.061 81.0019 382.137 80.998 382.141L79.0784 384.429C79.0428 384.472 78.9834 384.469 78.9518 384.425L77.1786 382.141C77.1786 382.137 77.1113 382.061 76.9886 382.061H73.5849C73.5255 382.061 73.478 382.018 73.478 381.964V381.207C73.478 381.099 73.383 381.013 73.2643 381.013H72.073H71.8988H71.784C71.6653 381.013 71.5703 381.099 71.5703 381.207V381.294V384.148C71.5941 384.508 71.879 384.912 72.6627 384.912H79.2367C79.3911 384.912 79.4702 384.822 79.4702 384.822L81.7223 382.126C81.7341 382.126 81.7816 382.061 81.6787 382.061ZM77.0441 384.505H74.0084C73.5849 384.505 73.4859 384.397 73.4859 384.097V382.562C73.4859 382.512 73.5295 382.469 73.5849 382.465H75.3501C75.4055 382.469 75.4728 382.497 75.5084 382.537L77.0916 384.429C77.1193 384.472 77.1034 384.505 77.0441 384.505Z" fill="#008B3B"/>
<path d="M68.3934 380.948L68.1757 380.944H68.0649H67.8472V380.948C65.6902 381.006 65.0252 381.928 64.9382 382.768H64.2218H64.016H63.3036H63.2521H62.8959H62.1795C62.1241 382.771 62.0806 382.811 62.0806 382.865V383.11C62.0806 383.161 62.1241 383.204 62.1795 383.207H62.8959H63.1888C63.2481 383.211 63.2996 383.254 63.2996 383.308V383.845V384.108C63.264 384.382 62.9869 384.48 62.3537 384.483C60.723 384.447 59.8562 383.816 59.8562 382.955C59.8562 382.069 60.7705 381.424 62.4922 381.424H62.9117H64.107C64.1624 381.42 64.206 381.38 64.206 381.326V381.096C64.206 381.045 64.1624 381.002 64.107 380.998H62.9434H62.9157H62.0727C58.8193 380.998 58 382.065 58 382.948C58 383.835 58.8193 384.898 62.0727 384.898H63.2956C63.9368 384.898 64.3959 384.854 64.7601 384.663C64.8946 384.591 65.0846 384.458 65.1123 384.231V384.227C65.1123 384.213 65.1163 384.198 65.1163 384.184V384.036C65.1281 383.964 65.1638 383.961 65.1717 383.961C65.2033 383.957 65.2271 383.964 65.2746 384.004C65.6625 384.516 66.4382 384.923 67.8472 384.962V384.966H68.0649H68.1757H68.3934V384.962C70.7167 384.901 71.3104 383.838 71.3104 382.948C71.3104 382.072 70.7167 381.009 68.3934 380.948ZM68.1401 384.57C67.4079 384.577 66.8023 383.86 66.7944 382.973C66.7825 382.087 67.3723 381.359 68.1045 381.355C68.8367 381.348 69.4383 382.065 69.4501 382.952C69.4581 383.838 68.8723 384.562 68.1401 384.57Z" fill="#E30613"/>
<path d="M447.02 389.974L451.039 385.993L447.058 381.974" stroke="#667085" stroke-width="1.2" stroke-linecap="round" stroke-linejoin="round"/>
</g>
</g>
<rect x="5" y="4.94434" width="490.74" height="454.63" rx="50" stroke="#E9EAF2" stroke-width="5"/>
<path d="M449.076 2.3147H50.9275C24.0803 2.3147 2.31641 24.0786 2.31641 50.9258V412.963C2.31641 439.81 24.0803 461.574 50.9275 461.574H449.076C475.923 461.574 497.687 439.81 497.687 412.963V50.9258C497.687 24.0786 475.923 2.3147 449.076 2.3147Z" stroke="#E9EAF2" stroke-width="5"/>
</g>
<defs>
<clipPath id="clip0_3178_1575">
<rect width="500" height="463.889" fill="white"/>
</clipPath>
<clipPath id="clip1_3178_1575">
<rect x="5" y="4.94434" width="490.74" height="454.63" rx="50" fill="white"/>
</clipPath>
<clipPath id="clip2_3178_1575">
<rect x="26" y="275.944" width="447" height="163" rx="8" fill="white"/>
</clipPath>
</defs>
</svg>
