<svg width="71" height="71" viewBox="0 0 71 71" fill="none" xmlns="http://www.w3.org/2000/svg">
<circle cx="35.1016" cy="35.5" r="35" fill="#DCFFC7"/>
<path d="M50.8514 38.2332V39.8999C50.8514 40.3499 50.5014 40.7166 50.0347 40.7332H47.6014C46.718 40.7332 45.918 40.0832 45.8514 39.2166C45.8014 38.6999 46.0014 38.2166 46.3347 37.8832C46.6347 37.5666 47.0514 37.3999 47.5014 37.3999H50.018C50.5014 37.4166 50.8514 37.7832 50.8514 38.2332Z" fill="#344054"/>
<path d="M45.0836 36.6501C44.2503 37.4667 43.8503 38.6834 44.1836 39.9501C44.6169 41.5001 46.1336 42.4834 47.7336 42.4834H49.1836C50.1003 42.4834 50.8503 43.2334 50.8503 44.1501V44.4667C50.8503 47.9167 48.0336 50.7334 44.5836 50.7334H25.4503C22.0003 50.7334 19.1836 47.9167 19.1836 44.4667V33.2501C19.1836 31.2001 20.1669 29.3834 21.6836 28.2501C22.7336 27.4501 24.0336 26.9834 25.4503 26.9834H44.5836C48.0336 26.9834 50.8503 29.8001 50.8503 33.2501V33.9834C50.8503 34.9001 50.1003 35.6501 49.1836 35.6501H47.4836C46.5503 35.6501 45.7003 36.0167 45.0836 36.6501Z" fill="#344054"/>
<path d="M42.1013 23.5333C42.5513 23.9833 42.168 24.6833 41.5347 24.6833L28.7347 24.6666C28.0013 24.6666 27.618 23.7666 28.1513 23.2499L30.8513 20.5333C33.1347 18.2666 36.8347 18.2666 39.118 20.5333L42.0347 23.4833C42.0513 23.4999 42.0847 23.5166 42.1013 23.5333Z" fill="#344054"/>
</svg>
